<svg width="138" height="37" viewBox="0 0 150 37" fill="none" xmlns="http://www.w3.org/2000/svg">
<path d="M16.6409 0H39.2754L22.6345 24.6651H0L16.6409 0Z" fill="#007AFF"/>
<path d="M17.6309 26.9515L11.1855 36.5049H34.8937L51.5346 11.8398H34.0365L23.841 26.9515H17.6309Z" fill="white"/>
<text x="60" y="30" font-family="'Outfit', sans-serif" font-weight="700" font-size="24" fill="white">
    ElitePro
  </text>

<path d="M65.2786 28L64.0527 27.5065L63.3221 29.3214H65.2786V28ZM72.7579 9.42072V8.09929H71.8653L71.532 8.92724L72.7579 9.42072ZM75.6914 9.42072L76.9179 8.92875L76.5851 8.09929H75.6914V9.42072ZM83.1443 28V29.3214H85.0981L84.3707 27.508L83.1443 28ZM79.3121 28L78.076 28.467L78.3988 29.3214H79.3121V28ZM73.5507 12.7507V11.4293H71.6389L72.3146 13.2177L73.5507 12.7507ZM74.8721 12.7507L76.1062 13.2234L76.7933 11.4293H74.8721V12.7507ZM69.0314 28V29.3214H69.9403L70.2654 28.4726L69.0314 28ZM69.2429 24.5379H67.9214V25.8593H69.2429V24.5379ZM69.2429 21.525V20.2036H67.9214V21.525H69.2429ZM79.2329 21.525H80.5543V20.2036H79.2329V21.525ZM79.2329 24.5379V25.8593H80.5543V24.5379H79.2329ZM66.5044 28.4935L73.9837 9.91419L71.532 8.92724L64.0527 27.5065L66.5044 28.4935ZM72.7579 10.7421H75.6914V8.09929H72.7579V10.7421ZM74.465 9.91268L81.9179 28.492L84.3707 27.508L76.9179 8.92875L74.465 9.91268ZM83.1443 26.6786H79.3121V29.3214H83.1443V26.6786ZM80.5483 27.533L74.7869 12.2837L72.3146 13.2177L78.076 28.467L80.5483 27.533ZM73.5507 14.0721H74.8721V11.4293H73.5507V14.0721ZM73.6381 12.2781L67.7974 27.5274L70.2654 28.4726L76.1062 13.2234L73.6381 12.2781ZM69.0314 26.6786H65.2786V29.3214H69.0314V26.6786ZM70.5643 24.5379V21.525H67.9214V24.5379H70.5643ZM69.2429 22.8464H79.2329V20.2036H69.2429V22.8464ZM77.9114 21.525V24.5379H80.5543V21.525H77.9114ZM79.2329 23.2164H69.2429V25.8593H79.2329V23.2164ZM85.3769 27.3921L86.0753 26.2704L85.3769 27.3921ZM83.1569 25.0136L81.9875 25.629L81.9917 25.637L81.996 25.6449L83.1569 25.0136ZM83.1569 18.2214L81.996 17.5901L81.9917 17.598L81.9875 17.606L83.1569 18.2214ZM85.3505 15.8429L84.652 14.7211L84.6424 14.7271L85.3505 15.8429ZM91.0062 15.5257L90.4037 16.7019L90.4152 16.7076L91.0062 15.5257ZM92.7769 17.085L91.6729 17.8113L91.6841 17.8282L91.6957 17.8447L92.7769 17.085ZM93.5169 19.305H94.8383V19.2769L94.8371 19.2488L93.5169 19.305ZM93.5169 23.8507L94.8371 23.9069L94.8383 23.8788V23.8507H93.5169ZM92.8033 26.0971L91.6994 25.3709L91.6994 25.3709L92.8033 26.0971ZM91.0326 27.6829L90.4194 26.5123L91.0326 27.6829ZM90.8212 24.6436L91.4949 25.7805L91.507 25.7731L90.8212 24.6436ZM91.9576 23.4279L90.7916 22.806L90.7877 22.8134L90.7839 22.8208L91.9576 23.4279ZM91.9576 19.8336L90.7757 20.4245L90.7876 20.4485L90.8006 20.4719L91.9576 19.8336ZM90.8212 18.6179L90.1171 19.7361L90.141 19.7512L90.1656 19.7652L90.8212 18.6179ZM87.4383 18.6179L86.7525 17.4883L86.7433 17.4939L86.7342 17.4996L87.4383 18.6179ZM86.3019 19.8336L85.1449 19.1952L85.1363 19.2107L85.1282 19.2265L86.3019 19.8336ZM86.3019 23.4279L85.12 24.0188L85.1319 24.0428L85.1449 24.0662L86.3019 23.4279ZM87.4647 24.6436L86.7789 25.7731L86.7939 25.7822L86.8091 25.7909L87.4647 24.6436ZM95.6312 28V29.3214H96.9526V28H95.6312ZM92.1955 28H90.874V29.3214H92.1955V28ZM92.1955 24.5643L90.8945 24.3328L90.874 24.4476V24.5643H92.1955ZM92.7505 21.4457L94.0514 21.6772L94.094 21.4381L94.0487 21.1995L92.7505 21.4457ZM92.169 18.38H90.8476V18.5042L90.8707 18.6262L92.169 18.38ZM92.169 8.89214V7.57071H90.8476V8.89214H92.169ZM95.6312 8.89214H96.9526V7.57071H95.6312V8.89214ZM88.5483 26.9429C87.5959 26.9429 86.7841 26.7117 86.0753 26.2704L84.6784 28.5139C85.8372 29.2354 87.1397 29.5857 88.5483 29.5857V26.9429ZM86.0753 26.2704C85.3432 25.8146 84.7592 25.194 84.3177 24.3822L81.996 25.6449C82.6469 26.8417 83.5429 27.8069 84.6784 28.5139L86.0753 26.2704ZM84.3262 24.3981C83.9075 23.6024 83.6855 22.6896 83.6855 21.6307H81.0426C81.0426 23.0738 81.3492 24.4161 81.9875 25.629L84.3262 24.3981ZM83.6855 21.6307C83.6855 20.551 83.9088 19.6299 84.3262 18.8369L81.9875 17.606C81.3478 18.8215 81.0426 20.1733 81.0426 21.6307H83.6855ZM84.3177 18.8528C84.7626 18.0349 85.3422 17.4132 86.0585 16.9586L84.6424 14.7271C83.5263 15.4354 82.6436 16.3994 81.996 17.5901L84.3177 18.8528ZM86.0489 16.9646C86.7546 16.5252 87.5743 16.2921 88.5483 16.2921V13.6493C87.1261 13.6493 85.814 13.9976 84.652 14.7211L86.0489 16.9646ZM88.5483 16.2921C89.2823 16.2921 89.8907 16.439 90.4038 16.7018L91.6086 14.3496C90.6769 13.8724 89.6467 13.6493 88.5483 13.6493V16.2921ZM90.4152 16.7076C90.9541 16.9771 91.3646 17.3426 91.6729 17.8113L93.8808 16.3587C93.3082 15.4883 92.5382 14.8143 91.5971 14.3438L90.4152 16.7076ZM91.6957 17.8447C92.0024 18.2812 92.1717 18.7749 92.1966 19.3612L94.8371 19.2488C94.7916 18.1789 94.4675 17.1926 93.8581 16.3253L91.6957 17.8447ZM92.1955 19.305V23.8507H94.8383V19.305H92.1955ZM92.1966 23.7945C92.1712 24.3924 92.0038 24.9081 91.6994 25.3709L93.9073 26.8234C94.4837 25.9472 94.7921 24.9652 94.8371 23.9069L92.1966 23.7945ZM91.6994 25.3709C91.3875 25.845 90.9695 26.2241 90.4194 26.5123L91.6457 28.8534C92.5757 28.3663 93.3382 27.6884 93.9073 26.8234L91.6994 25.3709ZM90.4194 26.5123C89.8865 26.7915 89.272 26.9429 88.5483 26.9429V29.5857C89.657 29.5857 90.6987 29.3495 91.6457 28.8534L90.4194 26.5123ZM89.1297 26.3879C89.9759 26.3879 90.7813 26.2032 91.4948 25.7804L90.1475 23.5068C89.9096 23.6477 89.5874 23.745 89.1297 23.745V26.3879ZM91.507 25.7731C92.2071 25.348 92.7551 24.7623 93.1313 24.035L90.7839 22.8208C90.6315 23.1153 90.4219 23.3401 90.1354 23.514L91.507 25.7731ZM93.1236 24.0497C93.5217 23.3033 93.7019 22.4762 93.7019 21.6043H91.059C91.059 22.1067 90.9573 22.4953 90.7916 22.806L93.1236 24.0497ZM93.7019 21.6043C93.7019 20.7448 93.5194 19.9288 93.1146 19.1952L90.8006 20.4719C90.9596 20.7602 91.059 21.1248 91.059 21.6043H93.7019ZM93.1395 19.2426C92.7635 18.4906 92.206 17.8873 91.4768 17.4705L90.1656 19.7652C90.423 19.9123 90.6231 20.1194 90.7757 20.4245L93.1395 19.2426ZM91.5252 17.4996C90.8125 17.0509 90.0067 16.8471 89.1562 16.8471V19.49C89.5742 19.49 89.8784 19.5858 90.1171 19.7361L91.5252 17.4996ZM89.1562 16.8471C88.2945 16.8471 87.4784 17.0476 86.7525 17.4883L88.1241 19.7474C88.3849 19.5891 88.714 19.49 89.1562 19.49V16.8471ZM86.7342 17.4996C86.062 17.9229 85.5305 18.4963 85.1449 19.1952L87.4589 20.4719C87.6371 20.1489 87.8631 19.9119 88.1424 19.7361L86.7342 17.4996ZM85.1282 19.2265C84.7521 19.9536 84.584 20.7582 84.584 21.6043H87.2269C87.2269 21.1114 87.3231 20.7354 87.4756 20.4407L85.1282 19.2265ZM84.584 21.6043C84.584 22.4632 84.7501 23.2791 85.12 24.0188L87.4838 22.8369C87.3251 22.5195 87.2269 22.1196 87.2269 21.6043H84.584ZM85.1449 24.0662C85.537 24.7769 86.0861 25.3524 86.7789 25.7731L88.1505 23.514C87.8568 23.3357 87.6306 23.1007 87.4589 22.7895L85.1449 24.0662ZM86.8091 25.7909C87.519 26.1965 88.3033 26.3879 89.1297 26.3879V23.745C88.7228 23.745 88.3972 23.6544 88.1203 23.4963L86.8091 25.7909ZM95.6312 26.6786H92.1955V29.3214H95.6312V26.6786ZM93.5169 28V24.5643H90.874V28H93.5169ZM93.4964 24.7958L94.0514 21.6772L91.4495 21.2142L90.8945 24.3328L93.4964 24.7958ZM94.0487 21.1995L93.4673 18.1338L90.8707 18.6262L91.4522 21.6919L94.0487 21.1995ZM93.4905 18.38V8.89214H90.8476V18.38H93.4905ZM92.169 10.2136H95.6312V7.57071H92.169V10.2136ZM94.3097 8.89214V28H96.9526V8.89214H94.3097ZM97.7426 28H96.4211V29.3214H97.7426V28ZM97.7426 9.42072V8.09929H96.4211V9.42072H97.7426ZM100.28 9.42072L101.4 8.72036L101.012 8.09929H100.28V9.42072ZM107.812 21.4721V22.7936H110.196L108.932 20.7718L107.812 21.4721ZM106.358 21.4721L105.237 20.7736L103.979 22.7936H106.358V21.4721ZM113.864 9.42072V8.09929H113.13L112.742 8.72213L113.864 9.42072ZM116.401 9.42072H117.723V8.09929H116.401V9.42072ZM116.401 28V29.3214H117.723V28H116.401ZM112.833 28H111.512V29.3214H112.833V28ZM112.833 15.5786L113.222 14.3156L111.512 13.7894V15.5786H112.833ZM113.52 15.79L114.642 16.4885L115.549 15.0317L113.909 14.527L113.52 15.79ZM108.288 24.1943V25.5157H109.021L109.409 24.8927L108.288 24.1943ZM105.856 24.1943L104.734 24.8927L105.122 25.5157H105.856V24.1943ZM100.623 15.79L100.248 14.523L98.5846 15.0158L99.5015 16.4885L100.623 15.79ZM101.337 15.5786H102.658V13.8088L100.961 14.3116L101.337 15.5786ZM101.337 28V29.3214H102.658V28H101.337ZM99.064 28V9.42072H96.4211V28H99.064ZM97.7426 10.7421H100.28V8.09929H97.7426V10.7421ZM99.1591 10.1211L106.691 22.1725L108.932 20.7718L101.4 8.72036L99.1591 10.1211ZM107.812 20.1507H106.358V22.7936H107.812V20.1507ZM107.48 22.1707L114.986 10.1193L112.742 8.72213L105.237 20.7736L107.48 22.1707ZM113.864 10.7421H116.401V8.09929H113.864V10.7421ZM115.08 9.42072V28H117.723V9.42072H115.08ZM116.401 26.6786H112.833V29.3214H116.401V26.6786ZM114.155 28V15.5786H111.512V28H114.155ZM112.445 16.8416L113.132 17.053L113.909 14.527L113.222 14.3156L112.445 16.8416ZM112.399 15.0915L107.166 23.4958L109.409 24.8927L114.642 16.4885L112.399 15.0915ZM108.288 22.8729H105.856V25.5157H108.288V22.8729ZM106.978 23.4958L101.745 15.0915L99.5015 16.4885L104.734 24.8927L106.978 23.4958ZM100.999 17.057L101.712 16.8456L100.961 14.3116L100.248 14.523L100.999 17.057ZM100.015 15.5786V28H102.658V15.5786H100.015ZM101.337 26.6786H97.7426V29.3214H101.337V26.6786ZM118.505 28H117.184V29.3214H118.505V28ZM118.505 15.235V13.9136H117.184V15.235H118.505ZM121.967 15.235H123.289V13.9136H121.967V15.235ZM121.967 28V29.3214H123.289V28H121.967ZM121.967 20.9436L121.234 22.0431L123.289 23.4127V20.9436H121.967ZM120.619 20.045L119.305 19.9121L119.225 20.7033L119.886 21.1445L120.619 20.045ZM121.994 16.345L123.004 17.1968L123.012 17.1871L121.994 16.345ZM126.936 15.2879L126.415 16.5024L126.434 16.5104L126.453 16.5178L126.936 15.2879ZM128.284 16.2657L129.279 17.1344L130.043 16.2596L129.273 15.3902L128.284 16.2657ZM126.117 18.75L125.142 19.6429L126.141 20.7322L127.112 19.6187L126.117 18.75ZM125.403 18.2743L124.912 19.5012L124.926 19.5065L124.939 19.5116L125.403 18.2743ZM119.827 28V15.235H117.184V28H119.827ZM118.505 16.5564H121.967V13.9136H118.505V16.5564ZM120.646 15.235V28H123.289V15.235H120.646ZM121.967 26.6786H118.505V29.3214H121.967V26.6786ZM122.7 19.8441L121.352 18.9455L119.886 21.1445L121.234 22.0431L122.7 19.8441ZM121.934 20.1779C122.075 18.7861 122.467 17.8331 123.004 17.1968L120.983 15.4932C120.005 16.6541 119.481 18.1677 119.305 19.9121L121.934 20.1779ZM123.012 17.1871C123.468 16.6358 124.15 16.2921 125.271 16.2921V13.6493C123.537 13.6493 122.035 14.2218 120.975 15.5029L123.012 17.1871ZM125.271 16.2921C125.735 16.2921 126.109 16.3712 126.415 16.5024L127.456 14.0733C126.776 13.7816 126.04 13.6493 125.271 13.6493V16.2921ZM126.453 16.5178C126.724 16.6242 127.006 16.8155 127.294 17.1413L129.273 15.3902C128.751 14.7997 128.135 14.3391 127.419 14.0579L126.453 16.5178ZM127.288 15.397L125.121 17.8813L127.112 19.6187L129.279 17.1344L127.288 15.397ZM127.091 17.8571C126.749 17.4846 126.334 17.212 125.867 17.037L124.939 19.5116C125.036 19.548 125.096 19.5925 125.142 19.6429L127.091 17.8571ZM125.894 17.0474C125.441 16.8663 124.96 16.7943 124.478 16.7943V19.4371C124.701 19.4371 124.836 19.4708 124.912 19.5012L125.894 17.0474ZM124.478 16.7943C123.426 16.7943 122.469 17.1454 121.72 17.8949L123.589 19.7637C123.791 19.5617 124.05 19.4371 124.478 19.4371V16.7943ZM121.72 17.8949C120.918 18.6965 120.646 19.8053 120.646 20.9436H123.289C123.289 20.179 123.474 19.8783 123.589 19.7637L121.72 17.8949ZM130.132 28H128.811V29.3214H130.132V28ZM130.132 9.92286V8.60143H128.811V9.92286H130.132ZM133.594 9.92286H134.916V8.60143H133.594V9.92286ZM133.594 28V29.3214H134.916V28H133.594ZM127.146 18.2743H125.824V19.5957H127.146V18.2743ZM127.146 15.235V13.9136H125.824V15.235H127.146ZM136.581 15.235H137.902V13.9136H136.581V15.235ZM136.581 18.2743V19.5957H137.902V18.2743H136.581ZM131.454 28V9.92286H128.811V28H131.454ZM130.132 11.2443H133.594V8.60143H130.132V11.2443ZM132.273 9.92286V28H134.916V9.92286H132.273ZM133.594 26.6786H130.132V29.3214H133.594V26.6786ZM128.467 18.2743V15.235H125.824V18.2743H128.467ZM127.146 16.5564H136.581V13.9136H127.146V16.5564ZM135.259 15.235V18.2743H137.902V15.235H135.259ZM136.581 16.9529H127.146V19.5957H136.581V16.9529Z" />
</svg>
